<mxfile host="app.diagrams.net" agent="Mozilla/5.0 (Windows NT 10.0; Win64; x64) AppleWebKit/537.36 (KHTML, like Gecko) Chrome/129.0.0.0 Safari/537.36" version="24.7.17">
  <diagram name="Página-1" id="qKcZusK52LE6Ck6sA0iH">
    <mxGraphModel dx="2440" dy="868" grid="1" gridSize="10" guides="1" tooltips="1" connect="1" arrows="1" fold="1" page="1" pageScale="1" pageWidth="827" pageHeight="1169" math="0" shadow="0">
      <root>
        <mxCell id="0" />
        <mxCell id="1" parent="0" />
        <mxCell id="6wfAjtvKT6K62waF33tj-1" value="client" style="shape=umlLifeline;perimeter=lifelinePerimeter;whiteSpace=wrap;html=1;container=0;dropTarget=0;collapsible=0;recursiveResize=0;outlineConnect=0;portConstraint=eastwest;newEdgeStyle={&quot;edgeStyle&quot;:&quot;elbowEdgeStyle&quot;,&quot;elbow&quot;:&quot;vertical&quot;,&quot;curved&quot;:0,&quot;rounded&quot;:0};fontSize=12;" vertex="1" parent="1">
          <mxGeometry x="120" y="40" width="100" height="520" as="geometry" />
        </mxCell>
        <mxCell id="6wfAjtvKT6K62waF33tj-2" value="" style="html=1;points=[];perimeter=orthogonalPerimeter;outlineConnect=0;targetShapes=umlLifeline;portConstraint=eastwest;newEdgeStyle={&quot;edgeStyle&quot;:&quot;elbowEdgeStyle&quot;,&quot;elbow&quot;:&quot;vertical&quot;,&quot;curved&quot;:0,&quot;rounded&quot;:0};fontSize=12;" vertex="1" parent="6wfAjtvKT6K62waF33tj-1">
          <mxGeometry x="45" y="70" width="10" height="400" as="geometry" />
        </mxCell>
        <mxCell id="6wfAjtvKT6K62waF33tj-3" value="dispatch" style="html=1;verticalAlign=bottom;startArrow=oval;endArrow=block;startSize=8;edgeStyle=elbowEdgeStyle;elbow=vertical;curved=0;rounded=0;fontSize=12;" edge="1" parent="6wfAjtvKT6K62waF33tj-1" target="6wfAjtvKT6K62waF33tj-2">
          <mxGeometry relative="1" as="geometry">
            <mxPoint x="-15" y="70" as="sourcePoint" />
          </mxGeometry>
        </mxCell>
        <mxCell id="6wfAjtvKT6K62waF33tj-4" value="Consulta customer&amp;nbsp;&lt;div&gt;pelo documento&lt;/div&gt;" style="html=1;verticalAlign=bottom;endArrow=block;edgeStyle=elbowEdgeStyle;elbow=vertical;curved=0;rounded=0;fontSize=12;" edge="1" parent="1" source="6wfAjtvKT6K62waF33tj-2" target="6wfAjtvKT6K62waF33tj-7">
          <mxGeometry relative="1" as="geometry">
            <mxPoint x="275" y="130" as="sourcePoint" />
            <Array as="points">
              <mxPoint x="260" y="120" />
            </Array>
            <mxPoint x="345" y="120" as="targetPoint" />
          </mxGeometry>
        </mxCell>
        <mxCell id="6wfAjtvKT6K62waF33tj-5" value="return dados do customer" style="html=1;verticalAlign=bottom;endArrow=open;dashed=1;endSize=8;edgeStyle=elbowEdgeStyle;elbow=vertical;curved=0;rounded=0;fontSize=12;" edge="1" parent="1">
          <mxGeometry x="0.0066" relative="1" as="geometry">
            <mxPoint x="175" y="490" as="targetPoint" />
            <Array as="points">
              <mxPoint x="270" y="490" />
            </Array>
            <mxPoint x="359.5" y="490" as="sourcePoint" />
            <mxPoint as="offset" />
          </mxGeometry>
        </mxCell>
        <mxCell id="6wfAjtvKT6K62waF33tj-6" value="tech-challenge-group-12" style="shape=umlLifeline;perimeter=lifelinePerimeter;whiteSpace=wrap;html=1;container=0;dropTarget=0;collapsible=0;recursiveResize=0;outlineConnect=0;portConstraint=eastwest;newEdgeStyle={&quot;edgeStyle&quot;:&quot;elbowEdgeStyle&quot;,&quot;elbow&quot;:&quot;vertical&quot;,&quot;curved&quot;:0,&quot;rounded&quot;:0};fontSize=12;" vertex="1" parent="1">
          <mxGeometry x="310" y="40" width="100" height="520" as="geometry" />
        </mxCell>
        <mxCell id="6wfAjtvKT6K62waF33tj-7" value="" style="html=1;points=[];perimeter=orthogonalPerimeter;outlineConnect=0;targetShapes=umlLifeline;portConstraint=eastwest;newEdgeStyle={&quot;edgeStyle&quot;:&quot;elbowEdgeStyle&quot;,&quot;elbow&quot;:&quot;vertical&quot;,&quot;curved&quot;:0,&quot;rounded&quot;:0};fontSize=12;" vertex="1" parent="6wfAjtvKT6K62waF33tj-6">
          <mxGeometry x="45" y="70" width="10" height="400" as="geometry" />
        </mxCell>
        <mxCell id="6wfAjtvKT6K62waF33tj-8" value="database&lt;br style=&quot;font-size: 12px;&quot;&gt;techchallenge" style="shape=umlLifeline;perimeter=lifelinePerimeter;whiteSpace=wrap;html=1;container=0;dropTarget=0;collapsible=0;recursiveResize=0;outlineConnect=0;portConstraint=eastwest;newEdgeStyle={&quot;edgeStyle&quot;:&quot;elbowEdgeStyle&quot;,&quot;elbow&quot;:&quot;vertical&quot;,&quot;curved&quot;:0,&quot;rounded&quot;:0};fontSize=12;" vertex="1" parent="1">
          <mxGeometry x="540" y="40" width="100" height="520" as="geometry" />
        </mxCell>
        <mxCell id="6wfAjtvKT6K62waF33tj-9" value="" style="html=1;points=[];perimeter=orthogonalPerimeter;outlineConnect=0;targetShapes=umlLifeline;portConstraint=eastwest;newEdgeStyle={&quot;edgeStyle&quot;:&quot;elbowEdgeStyle&quot;,&quot;elbow&quot;:&quot;vertical&quot;,&quot;curved&quot;:0,&quot;rounded&quot;:0};fontSize=12;" vertex="1" parent="6wfAjtvKT6K62waF33tj-8">
          <mxGeometry x="45" y="70" width="10" height="400" as="geometry" />
        </mxCell>
        <mxCell id="6wfAjtvKT6K62waF33tj-12" value="Consulta customer&lt;div style=&quot;font-size: 12px;&quot;&gt;TABELA:&amp;nbsp;CUSTOMER&lt;/div&gt;" style="html=1;verticalAlign=bottom;endArrow=block;edgeStyle=elbowEdgeStyle;elbow=vertical;curved=0;rounded=0;fontSize=12;" edge="1" parent="1">
          <mxGeometry relative="1" as="geometry">
            <mxPoint x="365" y="120" as="sourcePoint" />
            <Array as="points">
              <mxPoint x="360" y="130" />
            </Array>
            <mxPoint x="585" y="130" as="targetPoint" />
          </mxGeometry>
        </mxCell>
        <mxCell id="6wfAjtvKT6K62waF33tj-13" value="return" style="html=1;verticalAlign=bottom;endArrow=open;dashed=1;endSize=8;edgeStyle=elbowEdgeStyle;elbow=vertical;curved=0;rounded=0;fontSize=12;" edge="1" parent="1">
          <mxGeometry relative="1" as="geometry">
            <mxPoint x="365" y="148.99999999999994" as="targetPoint" />
            <Array as="points">
              <mxPoint x="415" y="149" />
            </Array>
            <mxPoint x="585" y="149" as="sourcePoint" />
          </mxGeometry>
        </mxCell>
        <mxCell id="6wfAjtvKT6K62waF33tj-16" value="" style="dashed=0;outlineConnect=0;html=1;align=center;labelPosition=center;verticalLabelPosition=bottom;verticalAlign=top;shape=mxgraph.webicons.json;gradientColor=#DFDEDE;fontSize=12;" vertex="1" parent="1">
          <mxGeometry x="130" y="120" width="22.4" height="22.4" as="geometry" />
        </mxCell>
        <mxCell id="6wfAjtvKT6K62waF33tj-17" value="" style="dashed=0;outlineConnect=0;html=1;align=center;labelPosition=center;verticalLabelPosition=bottom;verticalAlign=top;shape=mxgraph.webicons.json;gradientColor=#DFDEDE;fontSize=12;" vertex="1" parent="1">
          <mxGeometry x="187.6" y="510" width="32.4" height="32.4" as="geometry" />
        </mxCell>
        <mxCell id="6wfAjtvKT6K62waF33tj-18" value="Actor" style="shape=umlActor;verticalLabelPosition=bottom;verticalAlign=top;html=1;outlineConnect=0;fontSize=12;" vertex="1" parent="1">
          <mxGeometry x="60" y="70" width="30" height="60" as="geometry" />
        </mxCell>
        <mxCell id="6wfAjtvKT6K62waF33tj-19" value="client" style="shape=umlLifeline;perimeter=lifelinePerimeter;whiteSpace=wrap;html=1;container=0;dropTarget=0;collapsible=0;recursiveResize=0;outlineConnect=0;portConstraint=eastwest;newEdgeStyle={&quot;edgeStyle&quot;:&quot;elbowEdgeStyle&quot;,&quot;elbow&quot;:&quot;vertical&quot;,&quot;curved&quot;:0,&quot;rounded&quot;:0};fontSize=12;" vertex="1" parent="1">
          <mxGeometry x="120" y="630" width="100" height="520" as="geometry" />
        </mxCell>
        <mxCell id="6wfAjtvKT6K62waF33tj-20" value="" style="html=1;points=[];perimeter=orthogonalPerimeter;outlineConnect=0;targetShapes=umlLifeline;portConstraint=eastwest;newEdgeStyle={&quot;edgeStyle&quot;:&quot;elbowEdgeStyle&quot;,&quot;elbow&quot;:&quot;vertical&quot;,&quot;curved&quot;:0,&quot;rounded&quot;:0};fontSize=12;" vertex="1" parent="6wfAjtvKT6K62waF33tj-19">
          <mxGeometry x="45" y="70" width="10" height="400" as="geometry" />
        </mxCell>
        <mxCell id="6wfAjtvKT6K62waF33tj-21" value="dispatch" style="html=1;verticalAlign=bottom;startArrow=oval;endArrow=block;startSize=8;edgeStyle=elbowEdgeStyle;elbow=vertical;curved=0;rounded=0;fontSize=12;" edge="1" parent="6wfAjtvKT6K62waF33tj-19" target="6wfAjtvKT6K62waF33tj-20">
          <mxGeometry relative="1" as="geometry">
            <mxPoint x="-15" y="70" as="sourcePoint" />
          </mxGeometry>
        </mxCell>
        <mxCell id="6wfAjtvKT6K62waF33tj-22" value="Solicita criação de customer" style="html=1;verticalAlign=bottom;endArrow=block;edgeStyle=elbowEdgeStyle;elbow=vertical;curved=0;rounded=0;fontSize=12;" edge="1" parent="1" source="6wfAjtvKT6K62waF33tj-20" target="6wfAjtvKT6K62waF33tj-25">
          <mxGeometry relative="1" as="geometry">
            <mxPoint x="275" y="720" as="sourcePoint" />
            <Array as="points">
              <mxPoint x="260" y="710" />
            </Array>
            <mxPoint x="345" y="710" as="targetPoint" />
          </mxGeometry>
        </mxCell>
        <mxCell id="6wfAjtvKT6K62waF33tj-23" value="return dados do customer" style="html=1;verticalAlign=bottom;endArrow=open;dashed=1;endSize=8;edgeStyle=elbowEdgeStyle;elbow=vertical;curved=0;rounded=0;fontSize=12;" edge="1" parent="1">
          <mxGeometry x="0.0066" relative="1" as="geometry">
            <mxPoint x="175" y="1080" as="targetPoint" />
            <Array as="points">
              <mxPoint x="270" y="1080" />
            </Array>
            <mxPoint x="359.5" y="1080" as="sourcePoint" />
            <mxPoint as="offset" />
          </mxGeometry>
        </mxCell>
        <mxCell id="6wfAjtvKT6K62waF33tj-24" value="tech-challenge-group-12" style="shape=umlLifeline;perimeter=lifelinePerimeter;whiteSpace=wrap;html=1;container=0;dropTarget=0;collapsible=0;recursiveResize=0;outlineConnect=0;portConstraint=eastwest;newEdgeStyle={&quot;edgeStyle&quot;:&quot;elbowEdgeStyle&quot;,&quot;elbow&quot;:&quot;vertical&quot;,&quot;curved&quot;:0,&quot;rounded&quot;:0};fontSize=12;" vertex="1" parent="1">
          <mxGeometry x="310" y="630" width="100" height="520" as="geometry" />
        </mxCell>
        <mxCell id="6wfAjtvKT6K62waF33tj-25" value="" style="html=1;points=[];perimeter=orthogonalPerimeter;outlineConnect=0;targetShapes=umlLifeline;portConstraint=eastwest;newEdgeStyle={&quot;edgeStyle&quot;:&quot;elbowEdgeStyle&quot;,&quot;elbow&quot;:&quot;vertical&quot;,&quot;curved&quot;:0,&quot;rounded&quot;:0};fontSize=12;" vertex="1" parent="6wfAjtvKT6K62waF33tj-24">
          <mxGeometry x="45" y="70" width="10" height="400" as="geometry" />
        </mxCell>
        <mxCell id="6wfAjtvKT6K62waF33tj-26" value="database&lt;br style=&quot;font-size: 12px;&quot;&gt;techchallenge" style="shape=umlLifeline;perimeter=lifelinePerimeter;whiteSpace=wrap;html=1;container=0;dropTarget=0;collapsible=0;recursiveResize=0;outlineConnect=0;portConstraint=eastwest;newEdgeStyle={&quot;edgeStyle&quot;:&quot;elbowEdgeStyle&quot;,&quot;elbow&quot;:&quot;vertical&quot;,&quot;curved&quot;:0,&quot;rounded&quot;:0};fontSize=12;" vertex="1" parent="1">
          <mxGeometry x="540" y="630" width="100" height="520" as="geometry" />
        </mxCell>
        <mxCell id="6wfAjtvKT6K62waF33tj-27" value="" style="html=1;points=[];perimeter=orthogonalPerimeter;outlineConnect=0;targetShapes=umlLifeline;portConstraint=eastwest;newEdgeStyle={&quot;edgeStyle&quot;:&quot;elbowEdgeStyle&quot;,&quot;elbow&quot;:&quot;vertical&quot;,&quot;curved&quot;:0,&quot;rounded&quot;:0};fontSize=12;" vertex="1" parent="6wfAjtvKT6K62waF33tj-26">
          <mxGeometry x="45" y="70" width="10" height="400" as="geometry" />
        </mxCell>
        <mxCell id="6wfAjtvKT6K62waF33tj-28" value="Cria customer&lt;div style=&quot;font-size: 12px;&quot;&gt;TABELA:&amp;nbsp;CUSTOMER&lt;/div&gt;" style="html=1;verticalAlign=bottom;endArrow=block;edgeStyle=elbowEdgeStyle;elbow=vertical;curved=0;rounded=0;fontSize=12;" edge="1" parent="1">
          <mxGeometry relative="1" as="geometry">
            <mxPoint x="365" y="710" as="sourcePoint" />
            <Array as="points">
              <mxPoint x="360" y="720" />
            </Array>
            <mxPoint x="585" y="720" as="targetPoint" />
          </mxGeometry>
        </mxCell>
        <mxCell id="6wfAjtvKT6K62waF33tj-29" value="return" style="html=1;verticalAlign=bottom;endArrow=open;dashed=1;endSize=8;edgeStyle=elbowEdgeStyle;elbow=vertical;curved=0;rounded=0;fontSize=12;" edge="1" parent="1">
          <mxGeometry relative="1" as="geometry">
            <mxPoint x="365" y="739" as="targetPoint" />
            <Array as="points">
              <mxPoint x="415" y="739" />
            </Array>
            <mxPoint x="585" y="739" as="sourcePoint" />
          </mxGeometry>
        </mxCell>
        <mxCell id="6wfAjtvKT6K62waF33tj-30" value="" style="dashed=0;outlineConnect=0;html=1;align=center;labelPosition=center;verticalLabelPosition=bottom;verticalAlign=top;shape=mxgraph.webicons.json;gradientColor=#DFDEDE;fontSize=12;" vertex="1" parent="1">
          <mxGeometry x="130" y="710" width="22.4" height="22.4" as="geometry" />
        </mxCell>
        <mxCell id="6wfAjtvKT6K62waF33tj-31" value="" style="dashed=0;outlineConnect=0;html=1;align=center;labelPosition=center;verticalLabelPosition=bottom;verticalAlign=top;shape=mxgraph.webicons.json;gradientColor=#DFDEDE;fontSize=12;" vertex="1" parent="1">
          <mxGeometry x="187.6" y="1100" width="32.4" height="32.4" as="geometry" />
        </mxCell>
        <mxCell id="6wfAjtvKT6K62waF33tj-32" value="Actor" style="shape=umlActor;verticalLabelPosition=bottom;verticalAlign=top;html=1;outlineConnect=0;fontSize=12;" vertex="1" parent="1">
          <mxGeometry x="60" y="660" width="30" height="60" as="geometry" />
        </mxCell>
      </root>
    </mxGraphModel>
  </diagram>
</mxfile>
